<svg width="35" height="35" viewBox="0 0 35 35" fill="none" xmlns="http://www.w3.org/2000/svg">
<path d="M5.575 30.1333C4.10625 28.611 2.95573 26.8518 2.12344 24.8559C1.29115 22.8599 0.875 20.7963 0.875 18.6651C0.875 16.5338 1.26667 14.4279 2.05 12.3474C2.83333 10.2669 4.10625 8.31323 5.86875 6.48644C7.01111 5.3024 8.42274 4.28752 10.1036 3.44178C11.7845 2.59604 13.7755 1.92791 16.0766 1.43738C18.3776 0.946849 21.005 0.65084 23.9589 0.549352C26.9127 0.447863 30.2174 0.566267 33.8729 0.904562C34.134 4.49049 34.2156 7.78887 34.1177 10.7997C34.0198 13.8105 33.7505 16.5254 33.3099 18.9442C32.8693 21.363 32.2491 23.4773 31.4495 25.2872C30.6498 27.0971 29.6625 28.611 28.4875 29.8288C26.7576 31.6218 24.9217 32.9327 22.9797 33.7615C21.0377 34.5903 19.0549 35.0047 17.0313 35.0047C14.9097 35.0047 12.8372 34.5734 10.8135 33.7108C8.78993 32.8481 7.04375 31.6556 5.575 30.1333ZM11.0583 29.3214C12.0049 29.8965 12.9759 30.3109 13.9714 30.5646C14.9668 30.8183 15.9868 30.9452 17.0313 30.9452C18.5326 30.9452 20.0177 30.6323 21.4865 30.0064C22.9552 29.3806 24.3587 28.3741 25.6969 26.9871C26.2844 26.3782 26.88 25.524 27.4839 24.4245C28.0877 23.3251 28.6099 21.8873 29.0505 20.1113C29.4911 18.3352 29.8257 16.1871 30.0542 13.6668C30.2826 11.1465 30.3153 8.14408 30.1521 4.65964C28.5528 4.59198 26.7495 4.56661 24.7422 4.58352C22.7349 4.60044 20.7358 4.76113 18.7448 5.06559C16.7538 5.37006 14.8608 5.86059 13.0656 6.53718C11.2705 7.21377 9.80174 8.14408 8.65938 9.32812C7.19063 10.8504 6.17882 12.3559 5.62396 13.8444C5.0691 15.3329 4.79167 16.7706 4.79167 18.1576C4.79167 20.1536 5.15885 21.9042 5.89323 23.4097C6.6276 24.9151 7.27222 25.9722 7.82708 26.5812C9.19792 23.8748 11.0094 21.2784 13.2615 18.7919C15.5135 16.3055 18.141 14.2672 21.1438 12.6772C18.7938 14.8085 16.7457 17.2189 14.9995 19.9083C13.2533 22.5978 11.9396 25.7354 11.0583 29.3214Z" fill="#97D1B5"/>
</svg>
