<svg width="23" height="23" viewBox="0 0 23 23" fill="none" xmlns="http://www.w3.org/2000/svg">
<g id="search_FILL0_wght400_GRAD0_opsz24 1">
<path id="Vector" d="M18.7833 20.125L12.7458 14.0875C12.2667 14.4708 11.7156 14.7743 11.0927 14.9979C10.4698 15.2215 9.80694 15.3333 9.10417 15.3333C7.36319 15.3333 5.88976 14.7304 4.68385 13.5245C3.47795 12.3186 2.875 10.8451 2.875 9.10417C2.875 7.36319 3.47795 5.88976 4.68385 4.68385C5.88976 3.47795 7.36319 2.875 9.10417 2.875C10.8451 2.875 12.3186 3.47795 13.5245 4.68385C14.7304 5.88976 15.3333 7.36319 15.3333 9.10417C15.3333 9.80694 15.2215 10.4698 14.9979 11.0927C14.7743 11.7156 14.4708 12.2667 14.0875 12.7458L20.125 18.7833L18.7833 20.125ZM9.10417 13.4167C10.3021 13.4167 11.3203 12.9974 12.1589 12.1589C12.9974 11.3203 13.4167 10.3021 13.4167 9.10417C13.4167 7.90625 12.9974 6.88802 12.1589 6.04948C11.3203 5.21094 10.3021 4.79167 9.10417 4.79167C7.90625 4.79167 6.88802 5.21094 6.04948 6.04948C5.21094 6.88802 4.79167 7.90625 4.79167 9.10417C4.79167 10.3021 5.21094 11.3203 6.04948 12.1589C6.88802 12.9974 7.90625 13.4167 9.10417 13.4167Z" fill="#3D2F2B"/>
</g>
</svg>
