<svg width="27" height="27" viewBox="0 0 27 27" fill="none" xmlns="http://www.w3.org/2000/svg">
<rect width="27" height="27" fill="#3B3B3B"/>
<g id="MacBook Air - 5">
<rect width="1280" height="926" transform="translate(-1058 -513)" fill="white"/>
<rect id="Rectangle 7" x="-907" y="-291" width="976" height="329" rx="31" stroke="#97D1B5" stroke-width="2"/>
<g id="add_photo_alternate_FILL0_wght400_GRAD0_opsz24 1">
<path id="Vector" d="M5.625 23.625C5.00625 23.625 4.47656 23.4047 4.03594 22.9641C3.59531 22.5234 3.375 21.9937 3.375 21.375V5.625C3.375 5.00625 3.59531 4.47656 4.03594 4.03594C4.47656 3.59531 5.00625 3.375 5.625 3.375H15.75V5.625H5.625V21.375H21.375V11.25H23.625V21.375C23.625 21.9937 23.4047 22.5234 22.9641 22.9641C22.5234 23.4047 21.9937 23.625 21.375 23.625H5.625ZM19.125 10.125V7.875H16.875V5.625H19.125V3.375H21.375V5.625H23.625V7.875H21.375V10.125H19.125ZM6.75 19.125H20.25L16.0312 13.5L12.6562 18L10.125 14.625L6.75 19.125Z" fill="black" fill-opacity="0.59"/>
</g>
</g>
</svg>
